<?xml version="1.0" encoding="UTF-8"?>
<svg width="20px" height="20px" viewBox="0 0 20 20" version="1.1" xmlns="http://www.w3.org/2000/svg" xmlns:xlink="http://www.w3.org/1999/xlink">
    <title>53B71631-8709-43C4-A5DB-ACDB8F0A377B</title>
    <g id="Final" stroke="none" stroke-width="1" fill="none" fill-rule="evenodd">
        <g id="My-flights_options" transform="translate(-335.000000, -230.000000)" fill="#080808">
            <g id="Group-12" transform="translate(0.000000, 194.000000)">
                <g id="Group-2" transform="translate(20.000000, 30.000000)">
                    <g id="add" transform="translate(315.000000, 6.000000)">
                        <path d="M4.10905022,9.99940388 C4.10905022,9.51153635 4.50520193,9.11604157 4.99387982,9.11604157 L9.11482623,9.11604157 L9.11482623,5.00192885 C9.11482623,4.51406132 9.51097793,4.11856655 9.99965583,4.11856655 C10.4883337,4.11856655 10.8844854,4.51406132 10.8844854,5.00192885 L10.8844854,9.11604157 L15.0054318,9.11604157 C15.4941097,9.11604157 15.8902614,9.51153635 15.8902614,9.99940388 C15.8902614,10.4872714 15.4941097,10.8827662 15.0054318,10.8827662 L10.8844854,10.8827662 L10.8844854,14.9968789 C10.8844854,15.4847464 10.4883337,15.8802412 9.99965583,15.8802412 C9.51097793,15.8802412 9.11482623,15.4847464 9.11482623,14.9968789 L9.11482623,10.8827662 L4.99387982,10.8827662 C4.50520193,10.8827662 4.10905022,10.4872714 4.10905022,9.99940388 Z" id="Path" fill-rule="nonzero"></path>
                        <path d="M4.47477979,0.304797017 C8.14678316,-0.101599006 11.8525285,-0.101599006 15.5245319,0.304797017 C17.6799768,0.545071564 19.4201417,2.23994938 19.672613,4.40359812 C20.109129,8.12196452 20.109129,11.878021 19.672613,15.5963875 C19.4189619,17.7600362 17.678797,19.4537362 15.5245319,19.6951886 C11.8525296,20.1016038 8.14678209,20.1016038 4.47477979,19.6951886 C2.31933488,19.4537362 0.579169991,17.7600362 0.326698611,15.5963875 C-0.108899537,11.8781299 -0.108899537,8.12185565 0.326698611,4.40359812 C0.579169991,2.23994938 2.32051465,0.545071564 4.47477979,0.304797017 L4.47477979,0.304797017 Z M15.3286896,2.05974347 C11.7868461,1.66780682 8.21246558,1.66780682 4.67062207,2.05974347 C3.32087667,2.20923591 2.25045213,3.26424098 2.08338032,4.60971599 C1.66379219,8.19142034 1.66379219,11.809743 2.08338032,15.3914474 C2.25095734,16.736463 3.32126107,17.7908617 4.67062207,17.9402421 C8.18280571,18.3312772 11.8165059,18.3312772 15.3286896,17.9402421 C16.677592,17.790353 17.7472854,16.7360748 17.9147516,15.3914474 C18.3343504,11.8097437 18.3343504,8.19141972 17.9147516,4.60971599 C17.7467806,3.26554803 16.6772078,2.21187583 15.3286896,2.0620991 L15.3286896,2.05974347 Z" id="Shape"></path>
                    </g>
                </g>
            </g>
        </g>
    </g>
</svg>