<?xml version="1.0" encoding="UTF-8"?>
<svg width="15px" height="19px" viewBox="0 0 15 19" version="1.1" xmlns="http://www.w3.org/2000/svg" xmlns:xlink="http://www.w3.org/1999/xlink">
    <title>14F99FC0-F8A2-4B95-B1BD-4E9ADAA51ED6</title>
    <g id="Page-1" stroke="none" stroke-width="1" fill="none" fill-rule="evenodd">
        <g id="airport" transform="translate(-40.000000, -841.000000)" fill="#080808" fill-rule="nonzero">
            <g id="Group-12" transform="translate(20.000000, 716.000000)">
                <g id="Group-5" transform="translate(20.000000, 20.000000)">
                    <g id="Group-8" transform="translate(0.000000, 104.746298)">
                        <g id="bus" transform="translate(0.000000, 1.000000)">
                            <path d="M0,13.2444444 L0,3.77777778 C0,2.97777778 0.183284457,2.31851852 0.549853372,1.8 C0.916422287,1.28148148 1.47360704,0.896296296 2.22140762,0.644444444 C2.96920821,0.392592593 3.74633431,0.222222222 4.55278592,0.133333333 C5.35923754,0.0444444444 6.34164223,0 7.5,0 C8.65835777,0 9.64076246,0.0444444444 10.4472141,0.133333333 C11.2536657,0.222222222 12.0307918,0.392592593 12.7785924,0.644444444 C13.526393,0.896296296 14.0835777,1.28148148 14.4501466,1.8 C14.8167155,2.31851852 15,2.97777778 15,3.77777778 L15,13.2444444 C15,14.0740741 14.6920821,14.7851852 14.0762463,15.3777778 L14.0762463,17.0666667 C14.0762463,17.3037037 13.9809384,17.5185185 13.7903226,17.7111111 C13.5997067,17.9037037 13.3870968,18 13.1524927,18 L12.1847507,18 C11.9501466,18 11.7375367,17.9037037 11.5469208,17.7111111 C11.356305,17.5185185 11.2609971,17.3037037 11.2609971,17.0666667 L11.2609971,16.0888889 L3.73900293,16.0888889 L3.73900293,17.0666667 C3.73900293,17.3037037 3.65102639,17.5185185 3.47507331,17.7111111 C3.29912023,17.9037037 3.07917889,18 2.81524927,18 L1.8914956,18 C1.62756598,18 1.40029326,17.9037037 1.20967742,17.7111111 C1.01906158,17.5185185 0.923753666,17.3037037 0.923753666,17.0666667 L0.923753666,15.3777778 C0.307917889,14.7851852 0,14.0740741 0,13.2444444 M3.2771261,14.2222222 C3.67302053,14.2222222 4.01026393,14.0814815 4.2888563,13.8 C4.56744868,13.5185185 4.70674487,13.1777778 4.70674487,12.7777778 C4.70674487,12.3777778 4.56744868,12.0444444 4.2888563,11.7777778 C4.01026393,11.5111111 3.67302053,11.3777778 3.2771261,11.3777778 C2.88123167,11.3777778 2.55131965,11.5111111 2.28739003,11.7777778 C2.02346041,12.0444444 1.8914956,12.3777778 1.8914956,12.7777778 C1.8914956,13.1777778 2.02346041,13.5185185 2.28739003,13.8 C2.55131965,14.0814815 2.88123167,14.2222222 3.2771261,14.2222222 M11.7228739,14.2222222 C12.1187683,14.2222222 12.4560117,14.0814815 12.7346041,13.8 C13.0131965,13.5185185 13.1524927,13.1777778 13.1524927,12.7777778 C13.1524927,12.3777778 13.0131965,12.0444444 12.7346041,11.7777778 C12.4560117,11.5111111 12.1187683,11.3777778 11.7228739,11.3777778 C11.3269795,11.3777778 10.9970674,11.5111111 10.7331378,11.7777778 C10.4692082,12.0444444 10.3372434,12.3777778 10.3372434,12.7777778 C10.3372434,13.1777778 10.4692082,13.5185185 10.7331378,13.8 C10.9970674,14.0814815 11.3269795,14.2222222 11.7228739,14.2222222 M13.1524927,8.53333333 L13.1524927,3.77777778 L1.8914956,3.77777778 L1.8914956,8.53333333 L13.1524927,8.53333333 Z" id="Shape"></path>
                        </g>
                    </g>
                </g>
            </g>
        </g>
    </g>
</svg>