<?xml version="1.0" encoding="UTF-8"?>
<svg width="15px" height="14px" viewBox="0 0 15 14" version="1.1" xmlns="http://www.w3.org/2000/svg" xmlns:xlink="http://www.w3.org/1999/xlink">
    <title>19E573DE-FF11-4844-9720-5A273A6F87FC</title>
    <g id="Page-1" stroke="none" stroke-width="1" fill="none" fill-rule="evenodd">
        <g id="airport" transform="translate(-131.000000, -250.000000)" fill="#080808">
            <g id="thumb" transform="translate(30.000000, 236.000000)">
                <g id="Group-6" transform="translate(84.500000, 14.000000)">
                    <g id="calander" transform="translate(17.000000, 0.000000)">
                        <path d="M3.5,0 C3.01675084,0 2.625,0.391750844 2.625,0.875 L2.625,1.75 L1.75,1.75 C0.783501688,1.75 0,2.53350169 0,3.5 L0,12.25 C0,13.2164983 0.783501688,14 1.75,14 L12.25,14 C13.2164983,14 14,13.2164983 14,12.25 L14,3.5 C14,2.53350169 13.2164983,1.75 12.25,1.75 L11.375,1.75 L11.375,0.875 C11.375,0.391750844 10.9832492,0 10.5,0 C10.0167508,0 9.625,0.391750844 9.625,0.875 L9.625,1.75 L4.375,1.75 L4.375,0.875 C4.375,0.391750844 3.98324916,0 3.5,0 M3.5,4.375 C3.01675084,4.375 2.625,4.76675084 2.625,5.25 C2.625,5.73324916 3.01675084,6.125 3.5,6.125 L10.5,6.125 C10.9832492,6.125 11.375,5.73324916 11.375,5.25 C11.375,4.76675084 10.9832492,4.375 10.5,4.375 L3.5,4.375 Z" id="Shape"></path>
                    </g>
                </g>
            </g>
        </g>
    </g>
</svg>