<?xml version="1.0" encoding="UTF-8"?>
<svg width="17px" height="16px" viewBox="0 0 17 16" version="1.1" xmlns="http://www.w3.org/2000/svg" xmlns:xlink="http://www.w3.org/1999/xlink">
    <title>166FB394-BB6D-440A-B880-98518723105C</title>
    <g id="Page-1" stroke="none" stroke-width="1" fill="none" fill-rule="evenodd">
        <g id="airport" transform="translate(-59.000000, -252.000000)" fill="#080808" fill-rule="nonzero">
            <g id="thumb" transform="translate(30.000000, 236.000000)">
                <g id="Group-6" transform="translate(19.500000, 16.000000)">
                    <g id="cloud" transform="translate(10.000000, 0.000000)">
                        <path d="M8.92294737,16 L8,15.1014374 L8.92294737,14.2004107 L9.84589474,15.1014374 L8.92294737,16 Z M6.01768421,14.7679671 L5.47368421,14.2390144 L7.61768421,12.1470226 L8.16168421,12.6784394 L6.01768421,14.7679671 Z M11.4492632,13.5359343 L10.5263158,12.6373717 L11.4492632,11.736345 L12.3722105,12.6373717 L11.4492632,13.5359343 Z M3.87031579,13.5359343 L2.94736842,12.6373717 L3.87031579,11.736345 L4.79326316,12.6373717 L3.87031579,13.5359343 Z M4.21052632,10.6776181 C3.04112281,10.6776181 2.04715789,10.2781656 1.22863158,9.47926078 C0.40954386,8.68090349 0,7.71143053 0,6.57084189 C0,5.50855578 0.367157895,4.58973306 1.10147368,3.81437372 C1.83522807,3.04010951 2.75452632,2.59329227 3.85936842,2.47392197 C4.27592982,1.70403833 4.84659649,1.09897331 5.57136842,0.658726899 C6.29670175,0.219575633 7.10624561,0 8,0 C9.20926316,0 10.2481404,0.390965092 11.1166316,1.17289528 C11.9851228,1.95482546 12.490386,2.92922656 12.6324211,4.09609856 C13.6659649,4.15687885 14.485614,4.50732375 15.0913684,5.14743326 C15.6971228,5.78809035 16,6.53634497 16,7.39219713 C16,8.3028063 15.6721404,9.07816564 15.0164211,9.71827515 C14.3601404,10.3578371 13.565193,10.6776181 12.6315789,10.6776181 L4.21052632,10.6776181 Z" id="Shape"></path>
                    </g>
                </g>
            </g>
        </g>
    </g>
</svg>