<?xml version="1.0" encoding="UTF-8"?>
<svg width="19px" height="12px" viewBox="0 0 19 12" version="1.1" xmlns="http://www.w3.org/2000/svg" xmlns:xlink="http://www.w3.org/1999/xlink">
    <title>2DD91D4D-74CB-42EE-B231-6A1CF4562E06</title>
    <g id="Page-1" stroke="none" stroke-width="1" fill="none" fill-rule="evenodd">
        <g id="airport" transform="translate(-290.000000, -252.000000)" fill="#080808" fill-rule="nonzero">
            <g id="thumb" transform="translate(30.000000, 236.000000)">
                <g id="Group-6" transform="translate(236.500000, 16.000000)">
                    <g id="currency" transform="translate(24.000000, 0.000000)">
                        <path d="M1.61500004,12 C1.15500003,12 0.771000019,11.846 0.463000011,11.538 C0.154333337,11.2293333 0,10.845 0,10.385 L0,1.615 C0,1.155 0.154333337,0.771 0.463000011,0.463 C0.771000019,0.154333333 1.15500003,0 1.61500004,0 L16.3850004,0 C16.8450004,0 17.2290004,0.154333333 17.5370004,0.463 C17.8456671,0.771 18,1.155 18,1.615 L18,10.385 C18,10.845 17.8460004,11.229 17.5380004,11.537 C17.2293338,11.8456667 16.8450004,12 16.3850004,12 L1.61500004,12 Z M14.8080003,8.808 L12.7500003,8.808 C12.6220003,8.808 12.5163336,8.84966667 12.4330003,8.933 C12.349667,9.01633333 12.3080003,9.12166667 12.3080003,9.249 C12.3080003,9.37633333 12.349667,9.482 12.4330003,9.566 C12.5163336,9.65 12.6220003,9.692 12.7500003,9.692 L14.8850004,9.692 C15.113667,9.692 15.3053337,9.61466667 15.4600004,9.46 C15.614667,9.30533333 15.6920004,9.11366667 15.6920004,8.885 L15.6920004,6.75 C15.6920004,6.622 15.6503337,6.51633333 15.5670004,6.433 C15.483667,6.34966667 15.3783337,6.308 15.2510004,6.308 C15.123667,6.308 15.0180004,6.34966667 14.9340004,6.433 C14.8500004,6.51633333 14.8080003,6.622 14.8080003,6.75 L14.8080003,8.808 Z M10.6830003,7.683 C11.1510003,7.215 11.3850003,6.654 11.3850003,6 C11.3850003,5.34666667 11.1510003,4.78566667 10.6830003,4.317 C10.2150002,3.849 9.65400024,3.615 9.00000022,3.615 C8.34666687,3.615 7.78566686,3.849 7.31700018,4.317 C6.84900017,4.785 6.61500016,5.346 6.61500016,6 C6.61500016,6.65333333 6.84900017,7.21433333 7.31700018,7.683 C7.78500019,8.151 8.3460002,8.385 9.00000022,8.385 C9.65333357,8.385 10.2143336,8.151 10.6830003,7.683 Z M3.19200008,3.192 L5.25000013,3.192 C5.37800013,3.192 5.4836668,3.15033333 5.56700014,3.067 C5.65033347,2.98366667 5.69200014,2.87833333 5.69200014,2.751 C5.69200014,2.62366667 5.65033347,2.518 5.56700014,2.434 C5.4836668,2.35 5.37800013,2.308 5.25000013,2.308 L3.11500008,2.308 C2.8863334,2.308 2.69466673,2.38533333 2.54000006,2.54 C2.38533339,2.69466667 2.30800006,2.88633333 2.30800006,3.115 L2.30800006,5.25 C2.30800006,5.378 2.34966672,5.48366667 2.43300006,5.567 C2.51633339,5.65033333 2.62166673,5.692 2.74900007,5.692 C2.8763334,5.692 2.98200007,5.65033333 3.06600007,5.567 C3.15000008,5.48366667 3.19200008,5.378 3.19200008,5.25 L3.19200008,3.192 Z" id="Shape"></path>
                    </g>
                </g>
            </g>
        </g>
    </g>
</svg>