<?xml version="1.0" encoding="UTF-8"?>
<svg width="23px" height="12px" viewBox="0 0 23 12" version="1.1" xmlns="http://www.w3.org/2000/svg" xmlns:xlink="http://www.w3.org/1999/xlink">
    <title>72E168C7-5858-4DF8-A38F-5D9E7A61DF1C</title>
    <g id="Page-1" stroke="none" stroke-width="1" fill="none" fill-rule="evenodd">
        <g id="airport" transform="translate(-40.000000, -1101.000000)" fill="#080808">
            <g id="Group-12" transform="translate(20.000000, 901.000000)">
                <g id="Group-5" transform="translate(20.000000, 20.000000)">
                    <g id="Group-8" transform="translate(0.000000, 178.000000)">
                        <path d="M6.14265734,2 L11.5874126,2.03259847 L15.7496503,5.03165813 L23,6.40079407 L22.9664336,10.7689897 L20.1132867,10.8667851 C20.0461538,12.3663149 18.7706294,13.53986 17.2265734,13.53986 C15.6825175,13.53986 14.406993,12.3663149 14.3398601,10.8667851 L8.22377622,10.8993836 C8.12307692,12.3663149 6.88111888,13.53986 5.33706294,13.53986 C3.79300699,13.53986 2.51748252,12.3663149 2.41678322,10.8993836 L0,10.8993836 L0.100699301,6.46599101 L3.22237762,4.90126424 L6.14265734,2 Z M9.90450104,3 L7.46332064,7.02017697 L9.94427338,7.02017697 L9.36854806,10 L11.8097185,5.97982303 L9.32876581,5.97982303 L9.90450104,3 Z" id="electric-car"></path>
                    </g>
                </g>
            </g>
        </g>
    </g>
</svg>