<?xml version="1.0" encoding="UTF-8"?>
<svg width="16px" height="18px" viewBox="0 0 16 18" version="1.1" xmlns="http://www.w3.org/2000/svg" xmlns:xlink="http://www.w3.org/1999/xlink">
    <title>B05C018C-DF9B-4DC2-8FA1-5E91DE4B588C</title>
    <g id="Page-1" stroke="none" stroke-width="1" fill="none" fill-rule="evenodd">
        <g id="airport" transform="translate(-40.000000, -781.000000)" fill="#080808" fill-rule="nonzero">
            <g id="Group-12" transform="translate(20.000000, 716.000000)">
                <g id="Group-5" transform="translate(20.000000, 20.000000)">
                    <g id="Group-8" transform="translate(0.000000, 44.000000)">
                        <g id="metro" transform="translate(0.000000, 1.000000)">
                            <path d="M3.42857143,0 C1.53571429,0 0,1.51171875 0,3.375 L0,12.375 C0,14.0625 1.25714286,15.4582031 2.89642857,15.7113281 L1.25357143,17.3285156 C1.00357143,17.5746094 1.18214286,18 1.53571429,18 L2.95357143,18 C3.25714286,18 3.54642857,17.8804688 3.76071429,17.6695313 L5.71428571,15.75 L10.2857143,15.75 L12.2357143,17.6695313 C12.45,17.8804688 12.7392857,18 13.0428571,18 L14.4642857,18 C14.8214286,18 15,17.5746094 14.7464286,17.3285156 L13.1035714,15.7113281 C14.7464286,15.4617187 16,14.0625 16,12.375 L16,3.375 C16,1.51171875 14.4642857,0 12.5714286,0 L3.42857143,0 Z M2.28571429,3.375 C2.28571429,2.75273438 2.79642857,2.25 3.42857143,2.25 L12.5714286,2.25 C13.2035714,2.25 13.7142857,2.75273438 13.7142857,3.375 L13.7142857,6.75 C13.7142857,7.37226562 13.2035714,7.875 12.5714286,7.875 L3.42857143,7.875 C2.79642857,7.875 2.28571429,7.37226562 2.28571429,6.75 L2.28571429,3.375 Z M8,10.125 C8.94677386,10.125 9.71428571,10.8805195 9.71428571,11.8125 C9.71428571,12.7444805 8.94677386,13.5 8,13.5 C7.05322614,13.5 6.28571429,12.7444805 6.28571429,11.8125 C6.28571429,10.8805195 7.05322614,10.125 8,10.125" id="Shape"></path>
                        </g>
                    </g>
                </g>
            </g>
        </g>
    </g>
</svg>