<?xml version="1.0" encoding="UTF-8"?>
<svg width="19px" height="5px" viewBox="0 0 19 5" version="1.1" xmlns="http://www.w3.org/2000/svg" xmlns:xlink="http://www.w3.org/1999/xlink">
    <title>77CC5208-34BC-43B6-81EB-E8FB9D074DFA</title>
    <g id="Final" stroke="none" stroke-width="1" fill="none" fill-rule="evenodd">
        <g id="My-flights_options" transform="translate(-326.000000, -620.000000)" fill="#080808">
            <g id="Group-12" transform="translate(0.000000, 194.000000)">
                <g id="Group-8" transform="translate(20.000000, 166.000000)">
                    <g id="Group-22" transform="translate(0.000000, 242.000000)">
                        <g id="thumb" transform="translate(295.000000, 0.000000)">
                            <path d="M13.5,18 C14.8807119,18 16,19.1192881 16,20.5 C16,21.8807119 14.8807119,23 13.5,23 C12.1192881,23 11,21.8807119 11,20.5 C11,19.1192881 12.1192881,18 13.5,18 Z M20.5,18 C21.8807119,18 23,19.1192881 23,20.5 C23,21.8807119 21.8807119,23 20.5,23 C19.1192881,23 18,21.8807119 18,20.5 C18,19.1192881 19.1192881,18 20.5,18 Z M27.5,18 C28.8807119,18 30,19.1192881 30,20.5 C30,21.8807119 28.8807119,23 27.5,23 C26.1192881,23 25,21.8807119 25,20.5 C25,19.1192881 26.1192881,18 27.5,18 Z" id="more"></path>
                        </g>
                    </g>
                </g>
            </g>
        </g>
    </g>
</svg>