<?xml version="1.0" encoding="UTF-8"?>
<svg width="17px" height="18px" viewBox="0 0 17 18" version="1.1" xmlns="http://www.w3.org/2000/svg" xmlns:xlink="http://www.w3.org/1999/xlink">
    <title>1C43C4B0-E4C8-4D74-82F0-D82686705801</title>
    <g id="Final" stroke="none" stroke-width="1" fill="none" fill-rule="evenodd">
        <g id="My-flights_options" transform="translate(-35.000000, -279.000000)" fill="#080808" fill-rule="nonzero">
            <g id="Group-3" transform="translate(20.000000, 259.000000)">
                <g id="Group-8" transform="translate(15.000000, 20.000000)">
                    <path d="M8.5,9.7499814 C10.7623767,9.7499814 12.8504055,10.4217077 14.4131275,11.6600251 C15.9757836,12.8983425 17,14.7568901 17,16.8749272 C17,17.173397 16.8832182,17.4595721 16.6751874,17.6704048 C16.4671501,17.8815054 16.185385,18 15.8912527,18 L15.8912527,18 L1.1087473,18 C0.814608438,18 0.532843326,17.8814987 0.32481256,17.6704048 C0.116775193,17.4595654 0,17.1733903 0,16.8751887 C0,14.7571516 1.02415045,12.8986041 2.58687245,11.6602866 C4.14959445,10.4219692 6.23768933,9.75024297 8.5,9.7499814 Z M8.5000066,0 C10.9360843,0 12.9346922,2.02803607 12.9346922,4.49998336 C12.9346922,6.97193065 10.9360843,8.99996672 8.5000066,8.99996672 C6.0639289,8.99996672 4.06532097,6.97193065 4.06532097,4.49998336 C4.06532097,2.02803607 6.0639289,0 8.5000066,0 Z" id="me"></path>
                </g>
            </g>
        </g>
    </g>
</svg>