<?xml version="1.0" encoding="UTF-8"?>
<svg width="25px" height="18px" viewBox="0 0 25 18" version="1.1" xmlns="http://www.w3.org/2000/svg" xmlns:xlink="http://www.w3.org/1999/xlink">
    <title>70778420-D790-4EC9-B9C0-1AD9CC5C9EA9</title>
    <g id="Final" stroke="none" stroke-width="1" fill="none" fill-rule="evenodd">
        <g id="My-flights_options" transform="translate(-35.000000, -339.000000)" fill-rule="nonzero">
            <g id="Group-3" transform="translate(20.000000, 259.000000)">
                <g id="Group-5" transform="translate(15.000000, 20.000000)">
                    <g id="friend" transform="translate(0.000000, 60.000000)">
                        <path d="M8.5,9.7499814 C10.7623767,9.7499814 12.8504055,10.4217077 14.4131275,11.6600251 C15.9757836,12.8983425 17,14.7568901 17,16.8749272 C17,17.173397 16.8832182,17.4595721 16.6751874,17.6704048 C16.4671501,17.8815054 16.185385,18 15.8912527,18 L15.8912527,18 L1.1087473,18 C0.814608438,18 0.532843326,17.8814987 0.32481256,17.6704048 C0.116775193,17.4595654 0,17.1733903 0,16.8751887 C0,14.7571516 1.02415045,12.8986041 2.58687245,11.6602866 C4.14959445,10.4219692 6.23768933,9.75024297 8.5,9.7499814 Z M8.5000066,0 C10.9360843,0 12.9346922,2.02803607 12.9346922,4.49998336 C12.9346922,6.97193065 10.9360843,8.99996672 8.5000066,8.99996672 C6.0639289,8.99996672 4.06532097,6.97193065 4.06532097,4.49998336 C4.06532097,2.02803607 6.0639289,0 8.5000066,0 Z" id="Combined-Shape" fill="#080808"></path>
                        <path d="M18,11.9 C19.6420704,11.9 21.163931,12.3899192 22.3004416,13.3177905 C23.3845758,14.2029379 24.1,15.5299084 24.1,17.0453949 L24.1,17.0453949 L11.9174905,17.0978468 C11.9,15.5301378 12.6153674,14.2031689 13.699544,13.3180242 C14.8360969,12.3901183 16.358046,11.9001956 18,11.9 Z M17.5,3.9 C18.2141211,3.9 18.8633789,4.1941945 19.3345924,4.66540618 C19.8058046,5.13661666 20.1,5.78587024 20.1,6.49998706 C20.1,7.21410387 19.8058046,7.86335745 19.3345924,8.33456793 C18.8633789,8.80577962 18.2141211,9.09997411 17.5,9.09997411 C16.7858789,9.09997411 16.1366211,8.80577962 15.6654076,8.33456793 C15.1941954,7.86335745 14.9,7.21410387 14.9,6.49998706 C14.9,5.78587024 15.1941954,5.13661666 15.6654076,4.66540618 C16.1366211,4.1941945 16.7858789,3.9 17.5,3.9 Z" id="Combined-Shape" stroke="#080808" stroke-width="1.8"></path>
                    </g>
                </g>
            </g>
        </g>
    </g>
</svg>