<?xml version="1.0" encoding="UTF-8"?>
<svg width="24px" height="14px" viewBox="0 0 24 14" version="1.1" xmlns="http://www.w3.org/2000/svg" xmlns:xlink="http://www.w3.org/1999/xlink">
    <title>5D5C25E5-561F-4A10-9EA9-46B8E9792E03</title>
    <g id="Page-1" stroke="none" stroke-width="1" fill="none" fill-rule="evenodd">
        <g id="airport" transform="translate(-40.000000, -1028.000000)" fill="#080808" fill-rule="nonzero">
            <g id="Group-12" transform="translate(20.000000, 901.000000)">
                <g id="Group-5" transform="translate(20.000000, 20.000000)">
                    <g id="Group-8" transform="translate(0.000000, 106.000000)">
                        <g id="two-wheeler" transform="translate(0.000000, 1.000000)">
                            <path d="M4,14 C2.9,14 1.95833333,13.6083324 1.175,12.8249992 C0.391666667,12.0416659 0,11.0999993 0,10 C0,9.04999941 0.304333333,8.20833279 0.913,7.47499951 C1.52166667,6.74166622 2.30066667,6.28333292 3.25,6.0999996 L2.55,5.5 L0,5.5 L0,4 L4.5,4 L7,5.5 L11,4 L14.15,4 L12.6,2 L10,2 L10,0 L13.55,0 L15.65,2.69999982 L19,1 L19,4 L16.7,4 L18.45,6.29999959 C18.7,6.19999959 18.9543333,6.1249996 19.213,6.0749996 C19.4716667,6.0249996 19.734,6 20,6 C21.1,6 22.0416667,6.39166625 22.825,7.17499953 C23.6083333,7.95833281 24,8.89999942 24,10 C24,11.0999993 23.6083333,12.0416659 22.825,12.8249992 C22.0416667,13.6083324 21.1,14 20,14 C18.9,14 17.9583333,13.6083324 17.175,12.8249992 C16.3916667,12.0416659 16,11.0999993 16,10 C16,9.54999937 16.0793333,9.11266607 16.238,8.68799943 C16.3966667,8.26333279 16.6173333,7.86733282 16.9,7.5 L16.4,6.89999955 L13,12 L10,12 L8,10.2499993 C7.91666667,11.2999993 7.49166667,12.1876659 6.725,12.9129992 C5.95833333,13.6383324 5.05,14.0006657 4,14 M4,11.9999995 C4.55,11.9999995 5.021,11.8043326 5.413,11.4129993 C5.805,11.0216659 6.00066667,10.550666 6,9.99999948 C6,9.44999938 5.80433333,8.97933274 5.413,8.58799944 C5.02166667,8.19666613 4.55066667,8.00066614 4,7.99999948 C3.45,7.99999948 2.97933333,8.19599946 2.588,8.58799944 C2.19666667,8.97999941 2.00066667,9.45066605 2,9.99999948 C2,10.5499993 2.196,11.0209993 2.588,11.4129993 C2.98,11.8049992 3.45066667,12.0006659 4,11.9999995 M20,11.9999995 C20.55,11.9999995 21.021,11.8043326 21.413,11.4129993 C21.805,11.0216659 22.0006667,10.550666 22,9.99999948 C22,9.44999938 21.8043333,8.97933274 21.413,8.58799944 C21.0216667,8.19666613 20.5506667,8.00066614 20,7.99999948 C19.45,7.99999948 18.9793333,8.19599946 18.588,8.58799944 C18.1966667,8.97999941 18.0006667,9.45066605 18,9.99999948 C18,10.5499993 18.196,11.0209993 18.588,11.4129993 C18.98,11.8049992 19.4506667,12.0006659 20,11.9999995" id="Shape"></path>
                        </g>
                    </g>
                </g>
            </g>
        </g>
    </g>
</svg>